<svg xmlns="http://www.w3.org/2000/svg" viewBox="0 0 431.77 126.01" fill="white">
    <path d="M24.71,83.67c-.63,6.33-.55,10.3.61,16.26l-3.6,26.07H0c1.74-7.2,2.86-13.53,3.72-19.74l7.88-57.11c1.06-7.7,1.74-13.53,2.08-21.35h20.98c-2.42,5.83-3.55,9.56-4.55,15.89.87,0,1.88-.12,2.75-.12,4.16-12.17,14.21-17.5,25.26-17.5,17.26,0,24.5,13.16,21.16,37.37-3.19,23.09-13.2,38.11-31.58,38.11-11.55,0-19.55-5.83-20.38-17.88h-2.61ZM56.64,63.69c1.75-12.66-.83-20.98-10.02-20.98-10.18,0-15.27,8.07-17.08,21.23-1.83,13.28,1.47,20.86,11.27,20.86,8.07,0,13.94-7.45,15.82-21.1Z" />
    <path d="M133.05,55.12c1.16-8.44-1.98-12.66-12.41-12.66-7.7,0-17,2.61-26.39,6.83l2.09-15.15c8.92-4.35,18.71-7.82,30.63-7.82,16.14,0,29.99,6.7,26.78,29.92l-2.72,19.74c-1.23,8.94-1.84,15.15-2.17,23.84h-21.97c2.15-5.71,3.5-10.06,4.46-16.14h-2.61c-4.31,11.42-13.64,17.88-26.3,17.88-13.28,0-20.89-6.95-19.09-19.99,2.78-20.11,21.67-25.7,49.66-26.07l.05-.37ZM113.42,84.92c10.43,0,16.53-7.32,17.98-17.88l.09-.62c-16.07.37-26.48,3.85-27.45,10.92-.79,5.71,2.93,7.57,9.38,7.57Z" />
    <path d="M220.32,28.18l-2.72,19.74c-3.55-1.24-7.32-1.86-11.79-1.86-10.8,0-17.35,6.08-19.23,19.74l-4.69,34.02h-21.73c1.79-7.57,2.97-13.41,4.15-21.97l3.74-26.19c1.4-10.18,2.05-15.77,2.05-23.84h21.1c-2.66,6.7-3.8,10.43-4.97,18h2.73c2.8-12.17,10.88-19.49,21.56-19.49,3.6,0,7.1.75,9.8,1.86Z" />
    <path d="M258.76,12.29l-2.14,15.52h17.38l-2.07,15.02h-17.38l-4.47,32.4c-.82,5.96,1.88,7.95,6.35,7.95s8.26-1.37,12.35-3.1l-2.26,16.39c-5.64,3.1-12.39,5.21-20.33,5.21-13.66,0-19.5-6.21-17.48-20.86l5.24-37.99h-11.05l2.02-14.65h10.68c5.66-3.23,8.45-9.93,9.27-15.89h13.9Z" />
    <path d="M290.69,11.17c.93-6.7,6.67-9.68,14.12-9.68s12.27,2.86,11.33,9.68-6.58,9.93-14.03,9.93-12.38-2.98-11.42-9.93ZM279.7,99.81c3.25-13.66,4.4-21.1,5.84-31.53l.99-7.2c1.66-12.04,2.94-22.22,3.1-33.27h22.97c-1.72,7.08-2.6,12.54-3.59,19.74l-4.45,32.28c-1.18,8.57-1.78,12.91-1.89,19.99h-22.97Z" />
    <path d="M341.81,67.16c-1.64,11.92-.2,17.63,9.11,17.63,8.57,0,13.2-6.58,14.81-18.25l5.34-38.73h20.98c-1.54,7.57-3.03,14.77-4.21,23.34l-3.97,28.8c-.98,7.08-1.42,13.9-1.75,19.86h-20.48c2.38-6.46,3.48-9.93,4.46-16.14h-2.61c-4.02,12.04-12.27,17.88-23.94,17.88-17.5,0-20.81-12.04-18.5-28.8l2.98-21.6c1.54-11.17,1.88-13.66,2.48-23.34h21.6c-2.19,9.56-2.58,12.41-4.09,23.34l-2.21,16.02Z" />
    <path d="M395.28,89.01c1.11-8.07,6.4-12.17,15.21-12.17s12.63,3.85,11.48,12.17c-1.15,8.32-6.04,12.29-14.86,12.29s-12.97-4.1-11.84-12.29ZM425.41,46.06c-1.32,9.56-2.27,13.78-5.12,26.32-3.13-.74-5.95-.99-9.3-.99-2.73,0-5.99.25-9.32.99.39-11.79.81-19.37,2.33-30.42l5.79-41.96h21.97l-6.36,46.06Z" />
</svg>